<svg width="17" height="16" viewBox="0 0 17 16" fill="none" xmlns="http://www.w3.org/2000/svg">
<path d="M11.1621 5.29883L15.3516 5.91406C15.7031 5.97266 15.9961 6.20703 16.1133 6.55859C16.2305 6.88086 16.1426 7.26172 15.8789 7.49609L12.832 10.5137L13.5645 14.791C13.623 15.1426 13.4766 15.4941 13.1836 15.6992C12.8906 15.9336 12.5098 15.9336 12.1875 15.7871L8.4375 13.7656L4.6582 15.7871C4.36523 15.9336 3.95508 15.9336 3.69141 15.6992C3.39844 15.4941 3.25195 15.1426 3.31055 14.791L4.01367 10.5137L0.966797 7.49609C0.703125 7.26172 0.615234 6.88086 0.732422 6.55859C0.849609 6.20703 1.14258 5.97266 1.49414 5.91406L5.71289 5.29883L7.58789 1.40234C7.73438 1.08008 8.05664 0.875 8.4375 0.875C8.78906 0.875 9.11133 1.08008 9.25781 1.40234L11.1621 5.29883Z" fill="white"/>
</svg>
